<?xml version="1.0" encoding="UTF-8" standalone="no"?>
<!-- Created with Inkscape (http://www.inkscape.org/) -->

<svg
   width="58.958302mm"
   height="14.5797mm"
   viewBox="0 0 58.958302 14.5797"
   version="1.1"
   id="svg1"
   inkscape:version="1.4.2 (f4327f4, 2025-05-13)"
   sodipodi:docname="affiler.svg"
   xmlns:inkscape="http://www.inkscape.org/namespaces/inkscape"
   xmlns:sodipodi="http://sodipodi.sourceforge.net/DTD/sodipodi-0.dtd"
   xmlns="http://www.w3.org/2000/svg"
   xmlns:svg="http://www.w3.org/2000/svg">
  <sodipodi:namedview
     id="namedview1"
     pagecolor="#ffffff"
     bordercolor="#000000"
     borderopacity="0.25"
     inkscape:showpageshadow="2"
     inkscape:pageopacity="0.0"
     inkscape:pagecheckerboard="0"
     inkscape:deskcolor="#d1d1d1"
     inkscape:document-units="mm"
     inkscape:zoom="0.50835204"
     inkscape:cx="-198.68121"
     inkscape:cy="290.15326"
     inkscape:window-width="1920"
     inkscape:window-height="1009"
     inkscape:window-x="-8"
     inkscape:window-y="-8"
     inkscape:window-maximized="1"
     inkscape:current-layer="layer1"
     showguides="true" />
  <defs
     id="defs1" />
  <g
     inkscape:label="Camada 1"
     inkscape:groupmode="layer"
     id="layer1"
     transform="translate(-74.202677,-40.902484)">
    <g
       id="text1"
       style="font-size:19.7556px;line-height:0;letter-spacing:0.00264583px;word-spacing:0px;white-space:pre;inline-size:59.7572;fill:#ff6600;stroke-width:0.264999"
       transform="translate(18.290419,-70.923646)"
       aria-label="Affiler">
      <path
         style="font-weight:600;font-family:Fredoka;-inkscape-font-specification:'Fredoka Semi-Bold';font-variant-ligatures:no-common-ligatures;fill:#2c2c2c;stroke-width:0.265"
         d="m 69.347712,124.1339 q 0.237067,0.49389 0.256823,0.84949 0.01976,0.33585 -0.217312,0.61242 -0.217311,0.25683 -0.730957,0.51365 -0.790224,0.37536 -1.224847,0.21731 -0.434623,-0.13829 -0.80998,-0.92851 l -3.872097,-8.0998 -3.852342,8.0998 q -0.395112,0.77047 -0.829735,0.90876 -0.414868,0.15804 -1.205092,-0.21732 -0.513646,-0.23706 -0.750713,-0.49389 -0.217311,-0.27657 -0.197556,-0.63217 0.01976,-0.37536 0.276579,-0.86925 l 5.195722,-10.80631 q 0.197556,-0.39512 0.572913,-0.63218 0.395112,-0.23707 0.809979,-0.23707 0.296334,0 0.553157,0.11853 0.256823,0.0988 0.454379,0.29634 0.217312,0.19755 0.355601,0.47413 z m -9.917311,-1.12607 1.224847,-2.54847 h 4.207943 l 1.224847,2.54847 z m 13.648811,3.23992 q -0.691446,0 -1.007535,-0.21731 -0.31609,-0.21731 -0.395112,-0.55316 -0.05927,-0.3556 -0.05927,-0.75071 v -9.24562 q 0,-0.67169 0.217312,-1.32363 0.217311,-0.65193 0.691446,-1.16558 0.474134,-0.5334 1.205091,-0.84949 0.730957,-0.31609 1.778004,-0.31609 0.375357,0 0.711202,0.079 0.355601,0.0593 0.553157,0.37536 0.217311,0.29633 0.217311,1.02729 0,0.73096 -0.217311,1.04705 -0.217312,0.29633 -0.572913,0.37536 -0.335845,0.0593 -0.711201,0.0593 -0.256823,0 -0.434624,0.0395 -0.158044,0.0198 -0.256822,0.079 -0.09878,0.0593 -0.158045,0.19755 -0.03951,0.13829 -0.03951,0.33585 v 9.3444 q 0,0.37535 -0.07902,0.7112 -0.07902,0.33584 -0.395112,0.55315 -0.316089,0.19756 -1.047047,0.19756 z m -2.074338,-9.73951 h 2.173116 l 2.726273,-0.079 q 0.375357,0 0.711202,0.079 0.335845,0.0593 0.553157,0.37536 0.217311,0.31608 0.217311,1.04704 0,0.67169 -0.217311,0.98778 -0.197556,0.31609 -0.533402,0.41487 -0.335845,0.079 -0.730957,0.079 l -2.587983,-0.0593 h -2.390428 q -0.572912,-0.0198 -0.80998,-0.33585 -0.217311,-0.33585 -0.217311,-1.10631 0,-0.71121 0.276578,-1.04705 0.276579,-0.3556 0.829735,-0.3556 z m 9.954537,9.73951 q -0.691446,0 -1.007536,-0.21731 -0.316089,-0.21731 -0.395112,-0.55316 -0.05927,-0.3556 -0.05927,-0.75071 v -9.24562 q 0,-0.67169 0.217312,-1.32363 0.217312,-0.65193 0.691446,-1.16558 0.474134,-0.5334 1.205092,-0.84949 0.730957,-0.31609 1.778004,-0.31609 0.375356,0 0.711201,0.079 0.355601,0.0593 0.553157,0.37536 0.217312,0.29633 0.217312,1.02729 0,0.73096 -0.217312,1.04705 -0.217312,0.29633 -0.572912,0.37536 -0.335846,0.0593 -0.711202,0.0593 -0.256823,0 -0.434623,0.0395 -0.158045,0.0198 -0.256823,0.079 -0.09878,0.0593 -0.158045,0.19755 -0.03951,0.13829 -0.03951,0.33585 v 9.3444 q 0,0.37535 -0.07902,0.7112 -0.07902,0.33584 -0.395112,0.55315 -0.31609,0.19756 -1.047047,0.19756 z m -2.074338,-9.73951 h 2.173116 l 2.726273,-0.079 q 0.375356,0 0.711201,0.079 0.335845,0.0593 0.553157,0.37536 0.217312,0.31608 0.217312,1.04704 0,0.67169 -0.217312,0.98778 -0.197556,0.31609 -0.533401,0.41487 -0.335845,0.079 -0.730957,0.079 l -2.587984,-0.0593 H 78.80605 q -0.572912,-0.0198 -0.809979,-0.33585 -0.217312,-0.33585 -0.217312,-1.10631 0,-0.71121 0.276579,-1.04705 0.276578,-0.3556 0.829735,-0.3556 z m 9.030968,9.71975 q -0.730957,0 -1.047046,-0.19755 -0.296334,-0.21731 -0.375357,-0.55316 -0.05927,-0.3556 -0.05927,-0.73096 v -6.8947 q 0,-0.39511 0.05927,-0.73096 0.07902,-0.33584 0.395112,-0.5334 0.31609,-0.21731 1.047047,-0.21731 0.711202,0 1.007536,0.21731 0.316089,0.21731 0.375356,0.55316 0.07902,0.33584 0.07902,0.75071 v 6.87495 q 0,0.37536 -0.07902,0.73096 -0.05927,0.33584 -0.375356,0.5334 -0.296334,0.19755 -1.027292,0.19755 z m 0,-11.3002 q -0.750712,0 -1.066802,-0.21731 -0.31609,-0.21731 -0.395112,-0.57291 -0.05927,-0.3556 -0.05927,-0.75072 0,-0.41486 0.07902,-0.75071 0.07902,-0.3556 0.395112,-0.55316 0.316089,-0.21731 1.066802,-0.21731 0.730957,0 1.047047,0.21731 0.316089,0.21732 0.375356,0.57292 0.07902,0.3556 0.07902,0.75071 0,0.39511 -0.07902,0.75071 -0.05927,0.3556 -0.375356,0.57292 -0.31609,0.19755 -1.066803,0.19755 z"
         id="path12" />
      <path
         style="font-weight:600;font-family:Fredoka;-inkscape-font-specification:'Fredoka Semi-Bold';font-variant-ligatures:no-common-ligatures;fill:#ff6f00;stroke-width:0.265"
         d="m 94.912179,126.22799 q -0.80998,0 -1.442159,-0.0988 -0.612424,-0.079 -1.066802,-0.31609 -0.434624,-0.23707 -0.711202,-0.65194 -0.276578,-0.41487 -0.414868,-1.0668 -0.118533,-0.67169 -0.118533,-1.63972 v -9.12708 q 0,-0.39511 0.05927,-0.73096 0.07902,-0.33584 0.395112,-0.55316 0.316089,-0.21731 1.027291,-0.21731 0.711201,0 1.007535,0.21731 0.31609,0.21732 0.395112,0.55316 0.07902,0.33585 0.07902,0.73096 v 8.9888 q 0,0.31608 0.01976,0.5334 0.03951,0.19755 0.118534,0.31609 0.09878,0.11853 0.256823,0.15804 0.158045,0.0395 0.414867,0.0395 0.237068,0 0.474135,0.0593 0.256823,0.0593 0.434623,0.3556 0.1778,0.29633 0.1778,0.98778 0,0.7112 -0.1778,1.02729 -0.1778,0.31609 -0.434623,0.37536 -0.237067,0.0593 -0.49389,0.0593 z m 7.055411,0.1778 q -1.38289,0 -2.390429,-0.45437 -0.98778,-0.45438 -1.619959,-1.18534 -0.632179,-0.75071 -0.948269,-1.65947 -0.296334,-0.90876 -0.296334,-1.81752 0,-1.48167 0.671691,-2.62749 0.67169,-1.14583 1.857026,-1.79776 1.185334,-0.67169 2.726274,-0.67169 1.14582,0 1.97556,0.37536 0.84949,0.3556 1.38289,0.94826 0.55316,0.57292 0.80998,1.24461 0.27658,0.67169 0.27658,1.28411 0,1.08656 -0.5334,1.61996 -0.51365,0.51365 -1.32363,0.51365 h -4.70183 q 0.03951,0.51364 0.3556,0.86924 0.33585,0.3556 0.82974,0.55316 0.49389,0.19756 1.04704,0.19756 0.47414,0 0.82974,-0.0395 0.3556,-0.0593 0.61242,-0.13829 0.25682,-0.0988 0.47414,-0.1778 0.21731,-0.0988 0.37535,-0.15804 0.1778,-0.0593 0.33585,-0.079 0.29633,-0.0198 0.5334,0.1778 0.25682,0.1778 0.45438,0.55315 0.13829,0.21732 0.1778,0.41487 0.0593,0.19756 0.0593,0.39511 0,0.47414 -0.49389,0.84949 -0.47413,0.37536 -1.36313,0.59267 -0.86925,0.21731 -2.11385,0.21731 z m -2.11385,-5.84765 h 3.12138 q 0.31609,0 0.45438,-0.0988 0.15805,-0.11853 0.15805,-0.43462 0,-0.35561 -0.21731,-0.61243 -0.21731,-0.27658 -0.59267,-0.41487 -0.3556,-0.15804 -0.82974,-0.15804 -0.61242,0 -1.08655,0.23707 -0.47414,0.23706 -0.75072,0.63218 -0.25682,0.39511 -0.25682,0.84949 z m 9.30755,5.66985 q -0.73096,0 -1.04705,-0.19755 -0.29633,-0.21731 -0.37536,-0.57291 -0.0593,-0.35561 -0.0593,-0.73096 v -6.89471 q 0,-0.39511 0.079,-0.73095 0.079,-0.33585 0.37535,-0.5334 0.31609,-0.21732 1.04705,-0.21732 0.69145,0 0.98778,0.19756 0.31609,0.1778 0.39511,0.43462 0.079,0.23707 0.079,0.41487 l -0.23707,0.11853 q 0.0395,-0.079 0.19755,-0.27657 0.17781,-0.21732 0.47414,-0.43463 0.29633,-0.23706 0.7112,-0.39511 0.43462,-0.15804 0.98778,-0.15804 0.21731,0 0.47414,0.0395 0.27657,0.0198 0.55315,0.11853 0.29634,0.079 0.5334,0.23707 0.23707,0.13829 0.37536,0.3556 0.15804,0.21731 0.15804,0.5334 0,0.80998 -0.37535,1.38289 -0.37536,0.55316 -0.94827,0.55316 -0.33585,0 -0.47414,-0.0593 -0.13828,-0.0593 -0.23706,-0.11853 -0.079,-0.0593 -0.19756,-0.0988 -0.11853,-0.0593 -0.43462,-0.0593 -0.29634,0 -0.57291,0.079 -0.25683,0.079 -0.49389,0.25682 -0.21732,0.15804 -0.3556,0.41487 -0.11854,0.23706 -0.11854,0.5334 v 4.34623 q 0,0.37536 -0.079,0.73096 -0.0593,0.33584 -0.37536,0.5334 -0.31609,0.19755 -1.04704,0.19755 z"
         id="path13" />
    </g>
    <text
       xml:space="preserve"
       style="font-style:normal;font-variant:normal;font-weight:600;font-stretch:normal;font-size:3.175px;line-height:0;font-family:Fredoka;-inkscape-font-specification:'Fredoka Semi-Bold';font-variant-ligatures:no-common-ligatures;font-variant-caps:normal;font-variant-numeric:normal;font-variant-east-asian:normal;text-align:start;letter-spacing:0px;word-spacing:0px;writing-mode:lr-tb;direction:ltr;text-anchor:start;fill:#ff6f00;fill-opacity:1;stroke-width:0.264999"
       x="66.230148"
       y="125.40138"
       id="text6"><tspan
         sodipodi:role="line"
         id="tspan6"
         style="stroke-width:0.265"
         x="66.230148"
         y="125.40138" /><tspan
         sodipodi:role="line"
         style="stroke-width:0.265"
         id="tspan7"
         x="66.230148"
         y="125.40138" /><tspan
         sodipodi:role="line"
         style="stroke-width:0.265"
         x="66.230148"
         y="125.40138"
         id="tspan8" /></text>
  </g>
</svg>
