<?xml version="1.0" standalone="no"?>
<!DOCTYPE svg PUBLIC "-//W3C//DTD SVG 20010904//EN"
 "http://www.w3.org/TR/2001/REC-SVG-20010904/DTD/svg10.dtd">
<svg version="1.0" xmlns="http://www.w3.org/2000/svg"
 width="300.000000pt" height="66.000000pt" viewBox="0 0 300.000000 66.000000"
 preserveAspectRatio="xMidYMid meet">
<metadata>
Created by potrace 1.10, written by Peter Selinger 2001-2011
</metadata>

<!-- AFFI (Cinza escuro) -->
<g transform="translate(0.000000,66.000000) scale(0.050000,-0.050000)"
fill="#2C2C2C" stroke="none">
<path d="M597 1115 c-59 -48 -424 -839 -403 -874 71 -113 173 -94 243 45 l47
94 186 0 185 0 44 -101 c51 -120 81 -136 173 -92 98 47 92 76 -118 507 -230
473 -256 503 -357 421z m162 -540 c1 -8 -39 -15 -89 -15 -102 0 -106 10 -47
125 l42 83 47 -89 c25 -49 47 -96 47 -104z"/>
<path d="M1478 1168 c-83 -35 -158 -151 -158 -246 0 -46 -9 -62 -36 -62 -52 0
-84 -40 -84 -102 0 -85 20 -118 72 -118 48 0 48 -2 48 -206 0 -232 11 -254
123 -254 106 0 123 42 113 272 l-8 186 91 6 c176 12 167 216 -10 216 -119 0
-127 79 -11 102 78 16 101 45 102 129 0 110 -91 140 -242 77z"/>
<path d="M2206 1178 c-82 -24 -149 -118 -161 -230 -8 -65 -19 -88 -44 -88 -49
0 -81 -41 -81 -102 0 -85 20 -118 72 -118 47 0 48 -2 48 -198 0 -255 3 -262
113 -262 116 0 135 46 117 284 l-14 174 95 6 c177 11 175 216 -2 216 -119 0
-128 79 -11 102 77 16 101 45 102 122 0 104 -83 138 -234 94z"/>
<path d="M2704 1169 c-88 -62 -40 -209 69 -209 91 0 127 34 127 120 0 113 -97
158 -196 89z"/>
<path d="M2681 821 c-27 -50 -27 -552 0 -602 24 -45 155 -55 195 -15 16 16 24
116 24 316 0 200 -8 300 -24 316 -40 40 -171 30 -195 -15z"/>
</g>

<!-- HUB (Laranja) -->
<g transform="translate(0.000000,66.000000) scale(0.050000,-0.050000)"
fill="#FF6F00" stroke="none">
<path d="M3164 1123 c-28 -18 -40 -881 -13 -924 13 -21 128 -26 177 -7 26 10
32 46 32 190 l0 178 179 0 179 0 6 -185 6 -185 57 -7 c32 -3 79 -1 105 6 l48
12 0 457 c0 496 3 482 -110 482 -103 0 -110 -12 -110 -199 0 -211 19 -192
-188 -185 l-172 7 0 164 c0 200 -74 274 -196 196z"/>
<path d="M4225 859 c-55 -22 -68 -367 -17 -485 69 -161 257 -242 370 -159 54
41 55 41 79 2 19 -31 43 -38 109 -33 l84 6 5 325 6 326 -54 20 c-124 47 -156
8 -167 -209 -11 -217 -40 -266 -140 -241 -81 19 -90 41 -97 241 -7 181 -9 191
-56 209 -58 22 -63 22 -122 -2z"/>
<path d="M5135 1178 c-44 -25 -54 -931 -11 -974 34 -34 146 -30 176 6 21 26
29 26 67 0 137 -96 367 39 414 242 57 252 -229 508 -419 375 l-47 -33 9 166
c13 215 -57 295 -189 218z m388 -571 c53 -48 48 -139 -11 -177 -66 -44 -144
-21 -168 48 -42 121 87 213 179 129z"/>
</g>

</svg>
