<svg version="1.1" id="Layer_1" xmlns="http://www.w3.org/2000/svg" xmlns:xlink="http://www.w3.org/1999/xlink" x="0px" y="0px"
	 width="100%" viewBox="0 0 675 111" enable-background="new 0 0 675 111" xml:space="preserve">
<path fill="transparent" opacity="1.000000" stroke="none" 
	d="
M511.000000,112.000000 
	C340.666718,112.000000 170.833435,112.000000 1.000114,112.000000 
	C1.000076,75.000061 1.000076,38.000122 1.000038,1.000139 
	C225.999878,1.000093 450.999756,1.000093 675.999756,1.000046 
	C675.999817,37.999859 675.999817,74.999718 675.999878,111.999786 
	C621.166687,112.000000 566.333313,112.000000 511.000000,112.000000 
M66.974892,29.973026 
	C66.974892,29.973026 66.965233,30.071850 67.906349,30.006117 
	C76.289597,29.949324 84.672844,29.892529 93.829514,29.940853 
	C95.767525,29.231045 99.216454,28.771141 99.382339,27.768221 
	C100.105286,23.397301 100.642708,18.707890 99.752754,14.446294 
	C98.999718,10.840300 94.940727,10.984077 91.585533,10.963983 
	C67.878685,10.821991 44.172493,10.494877 20.465925,10.478590 
	C17.560984,10.476594 13.561756,11.053352 11.972490,12.953459 
	C8.442872,17.173429 9.372891,22.870615 11.553478,27.343243 
	C12.433130,29.147507 16.945984,29.756989 19.851107,29.886744 
	C27.867466,30.244785 35.907948,30.062721 43.995281,31.018356 
	C43.993572,52.982265 43.970573,74.946236 44.036407,96.909943 
	C44.040958,98.429459 44.707066,99.946999 45.022709,102.183914 
	C48.345303,105.160561 61.055134,106.456047 64.299835,103.778198 
	C65.405952,102.865318 65.489243,100.713097 66.811722,98.714272 
	C66.844780,95.645760 66.877831,92.577248 67.067184,89.378174 
	C67.067184,89.378174 66.974258,89.196953 67.755234,88.750305 
	C67.835175,70.439857 67.926041,52.129429 67.951653,33.818909 
	C67.952591,33.147427 67.314522,32.475052 67.073990,31.634209 
	C67.073990,31.634209 66.914589,31.519930 66.995872,30.750664 
	C67.021866,30.494125 67.047867,30.237589 66.974892,29.973026 
M462.986023,68.906609 
	C463.044922,78.934967 463.103821,88.963326 463.237885,99.690590 
	C466.074097,104.686272 471.938538,106.809731 477.916290,105.658554 
	C482.927094,104.693588 486.834808,103.221497 486.860535,96.616463 
	C486.910126,71.061615 486.966797,45.506767 486.970306,19.951916 
	C486.970398,19.279711 486.391479,18.607428 486.020813,17.193579 
	C484.604248,10.896129 479.139008,10.433777 470.595612,11.274031 
	C467.431824,11.585194 464.033173,12.540123 463.167786,17.338791 
	C463.134369,27.817823 463.100952,38.296856 462.138245,48.963367 
	C451.412018,48.916008 440.685822,48.868649 429.982727,47.916634 
	C429.935852,37.933029 429.888977,27.949429 429.744232,17.287273 
	C426.886902,12.150549 418.728088,9.093457 412.296600,11.445983 
	C409.914978,12.317144 408.181824,14.961099 405.996246,17.760588 
	C406.050964,44.861950 406.105652,71.963310 406.257263,99.753883 
	C408.945343,104.456528 415.188690,107.020271 420.684143,105.678085 
	C428.531494,103.761482 429.195679,103.059456 429.989014,95.070335 
	C430.019501,86.059845 430.049957,77.049362 431.007233,68.007637 
	C441.685242,68.031677 452.363281,68.055717 463.038513,67.964508 
	C463.038513,67.964508 462.923248,67.964958 462.986023,68.906609 
M374.967438,13.231544 
	C374.531860,9.928728 373.348877,7.223640 369.537903,6.815351 
	C366.417206,6.481016 363.260925,6.408322 360.165039,5.930512 
	C356.092133,5.301916 353.768402,6.892950 352.283875,11.237272 
	C352.189972,14.708506 352.011902,18.179840 352.016052,21.650955 
	C352.040253,41.776688 352.107330,61.902367 352.029297,82.885254 
	C352.674469,86.894211 353.205078,90.925873 353.993744,94.906403 
	C354.985779,99.913223 359.051849,103.685707 364.284393,104.430992 
	C368.863403,105.083176 373.467194,105.704247 378.080444,105.939598 
	C385.005005,106.292870 387.001434,104.257637 387.001770,97.525635 
	C387.001862,95.527931 387.003052,93.530235 387.000793,91.532532 
	C386.994415,85.917290 385.519928,84.239403 379.824982,84.045731 
	C376.388550,83.928886 374.631683,82.572342 374.958984,78.096085 
	C374.918549,56.725090 374.878082,35.354095 374.967438,13.231544 
M553.988770,43.851002 
	C554.051208,53.843571 554.113647,63.836136 553.902710,74.517441 
	C550.598877,80.297455 545.346497,83.743896 541.409241,82.715309 
	C534.132507,80.814301 532.007019,77.597702 532.011292,68.496986 
	C532.014771,61.028996 532.041443,53.560909 532.010986,46.093052 
	C531.990356,41.039242 527.979736,37.315971 522.938599,37.604904 
	C521.139954,37.707989 519.267273,38.245129 517.561584,37.908741 
	C513.076416,37.024220 510.426910,38.737640 508.997253,43.901215 
	C509.049896,53.938744 509.102539,63.976273 509.027191,74.854134 
	C510.661438,80.240219 511.634125,85.951904 514.086853,90.935158 
	C517.655640,98.185829 523.729187,103.782402 531.861572,104.761086 
	C540.136597,105.756920 549.317993,106.927017 554.669128,97.051605 
	C554.142090,102.424973 557.278809,104.547935 561.284424,105.704414 
	C570.771362,108.443459 577.007019,103.753944 577.001160,94.062645 
	C576.992126,79.100571 576.993103,64.138481 577.000854,49.176399 
	C577.006226,38.843346 576.118286,37.971111 565.573181,37.994026 
	C564.580627,37.996181 563.576477,37.977070 562.597168,37.834282 
	C558.380615,37.219467 555.329224,38.487839 553.988770,43.851002 
M329.018585,43.194313 
	C327.933838,38.347828 323.585022,36.895069 320.054932,37.300457 
	C315.244598,37.852867 308.181274,35.391697 307.089691,43.875427 
	C293.561127,33.531425 280.582153,36.478321 270.512421,47.240070 
	C259.046600,59.493820 257.527252,75.484055 265.945251,89.716171 
	C270.003082,96.576599 275.622528,101.983147 283.565247,103.966103 
	C292.101166,106.097153 300.590302,106.707817 307.344177,98.141129 
	C309.398926,108.656197 316.964905,104.353554 322.339508,104.852554 
	C327.357086,105.318413 329.400024,101.654640 330.005737,96.120071 
	C330.004761,80.226952 330.027954,64.333733 329.963593,48.440876 
	C329.957520,46.937244 329.401703,45.435837 329.018585,43.194313 
M599.950012,99.848732 
	C600.995300,105.493614 605.856567,106.003517 609.797119,105.765678 
	C614.542175,105.479294 620.478577,106.122444 622.511353,99.599854 
	C628.265442,108.406464 637.860901,106.635864 644.241821,104.374466 
	C664.827515,97.079002 672.915955,77.167877 664.835388,58.157711 
	C662.666382,53.054901 658.103455,48.785583 654.068909,44.696701 
	C644.592773,35.093010 630.049316,36.042336 622.033386,42.656742 
	C622.092102,41.634991 622.138184,40.833496 622.913635,39.574512 
	C622.940796,34.165993 623.078674,28.754944 622.955261,23.349857 
	C622.876160,19.887154 622.411743,16.433245 622.032776,12.221035 
	C621.280762,8.011661 618.241760,6.073072 614.492432,6.109221 
	C608.817505,6.163937 602.012634,4.015439 599.001465,12.816957 
	C599.000732,40.072868 598.984985,67.328812 599.039551,94.584618 
	C599.042603,96.088890 599.628784,97.591995 599.950012,99.848732 
M129.408493,105.117538 
	C137.147339,107.327591 144.686432,106.908958 152.273178,104.071419 
	C173.812103,96.015594 178.956726,70.953857 169.110733,53.873722 
	C161.937180,41.429535 150.091797,35.672016 135.679794,36.039890 
	C126.665169,36.269993 118.422371,39.762676 112.543121,46.302635 
	C106.026688,53.551384 102.548401,62.301910 102.788315,72.766006 
	C103.123802,87.398521 113.883713,102.229996 129.408493,105.117538 
M235.063858,84.608780 
	C227.385178,84.881401 224.320633,83.562126 224.102982,79.204155 
	C223.790817,72.954124 224.023376,66.676903 224.023376,59.998810 
	C226.204041,59.998810 227.833130,59.982109 229.461777,60.001434 
	C243.404922,60.166862 243.180267,60.950638 243.009827,46.644947 
	C242.940887,40.859863 240.190903,38.076050 234.234665,38.008205 
	C230.957794,37.970882 227.680145,38.001526 223.998581,38.001526 
	C223.998581,32.641613 223.786224,27.838511 224.069122,23.064751 
	C224.276810,19.559938 222.820511,17.364729 219.886292,15.988616 
	C214.559631,13.490489 209.098480,14.743275 203.703766,15.749729 
	C203.028595,15.875692 202.141998,16.951904 202.030533,17.690083 
	C201.037445,24.266487 200.196701,30.865900 199.271713,37.751457 
	C189.290237,38.901356 188.761017,39.535168 189.001282,51.344864 
	C189.004669,51.511219 188.991379,51.678524 189.004074,51.843990 
	C189.522064,58.606773 191.618179,60.278046 196.877792,59.968079 
	C200.319763,59.765232 201.120270,61.455147 201.043106,64.511208 
	C200.896118,70.332085 200.771225,76.170464 201.052750,81.981438 
	C201.535706,91.950531 204.925995,100.405472 215.379990,103.607430 
	C220.111420,105.056625 225.232758,105.837036 230.177216,105.837082 
	C236.701294,105.837143 239.418579,103.517120 240.539780,96.692703 
	C241.257202,92.325974 240.631424,87.496284 235.063858,84.608780 
z"/>
<path fill="#27C2AA" opacity="1.000000" stroke="none" 
	d="
M486.102814,97.046097 
	C486.834808,103.221497 482.927094,104.693588 477.916290,105.658554 
	C471.938538,106.809731 466.074097,104.686272 463.483185,99.032150 
	C463.818146,89.592255 463.955200,80.810768 463.947601,72.029404 
	C463.946442,70.674286 463.281311,69.319756 462.923248,67.964958 
	C462.923248,67.964958 463.038513,67.964508 462.731323,67.732193 
	C452.965576,67.328430 443.507416,67.106667 434.048126,67.035416 
	C432.485779,67.023643 430.918488,67.670921 429.241150,68.470200 
	C429.365631,77.951706 429.602417,86.976646 429.839203,96.001579 
	C429.195679,103.059456 428.531494,103.761482 420.684143,105.678085 
	C415.188690,107.020271 408.945343,104.456528 406.506226,99.103363 
	C406.831207,71.807434 406.912415,45.162037 406.948364,18.516579 
	C406.949127,17.943594 406.429688,17.369905 406.152924,16.796549 
	C408.181824,14.961099 409.914978,12.317144 412.296600,11.445983 
	C418.728088,9.093457 426.886902,12.150549 429.510040,17.940331 
	C429.185577,25.639828 428.991028,32.687199 429.053833,39.732277 
	C429.080872,42.764397 429.641418,45.791759 429.959595,48.821285 
	C440.685822,48.868649 451.412018,48.916008 462.877686,48.582600 
	C463.723999,37.771667 463.830933,27.341501 463.937866,16.911337 
	C464.033173,12.540123 467.431824,11.585194 470.595612,11.274031 
	C479.139008,10.433777 484.604248,10.896129 485.998779,18.034037 
	C486.018768,44.931694 486.060791,70.988899 486.102814,97.046097 
z"/>
<path fill="#28C2AA" opacity="1.000000" stroke="none" 
	d="
M599.157776,11.865259 
	C602.012634,4.015439 608.817505,6.163937 614.492432,6.109221 
	C618.241760,6.073072 621.280762,8.011661 622.018799,13.064899 
	C622.064575,22.616510 622.124390,31.324257 622.184204,40.032001 
	C622.138184,40.833496 622.092102,41.634991 622.033386,42.656742 
	C630.049316,36.042336 644.592773,35.093010 654.068909,44.696701 
	C658.103455,48.785583 662.666382,53.054901 664.835388,58.157711 
	C672.915955,77.167877 664.827515,97.079002 644.241821,104.374466 
	C637.860901,106.635864 628.265442,108.406464 622.511353,99.599854 
	C620.478577,106.122444 614.542175,105.479294 609.797119,105.765678 
	C605.856567,106.003517 600.995300,105.493614 599.984131,98.999283 
	C600.011047,71.116112 600.019287,44.082352 599.960938,17.048738 
	C599.957214,15.320341 599.437439,13.593059 599.157776,11.865259 
M633.570129,60.000904 
	C629.581543,60.426418 626.497253,62.375416 624.690918,65.911270 
	C622.690796,69.826408 621.865112,73.979431 624.538513,77.953041 
	C626.881958,81.436310 630.681396,83.483109 634.482849,82.581772 
	C640.745361,81.096909 644.439392,77.510796 644.087769,71.551247 
	C643.713745,65.210999 640.826294,61.361313 633.570129,60.000904 
z"/>
<path fill="#3612F0" opacity="1.000000" stroke="none" 
	d="
M329.840637,97.054062 
	C329.400024,101.654640 327.357086,105.318413 322.339508,104.852554 
	C316.964905,104.353554 309.398926,108.656197 307.344177,98.141129 
	C300.590302,106.707817 292.101166,106.097153 283.565247,103.966103 
	C275.622528,101.983147 270.003082,96.576599 265.945251,89.716171 
	C257.527252,75.484055 259.046600,59.493820 270.512421,47.240070 
	C280.582153,36.478321 293.561127,33.531425 307.089691,43.875427 
	C308.181274,35.391697 315.244598,37.852867 320.054932,37.300457 
	C323.585022,36.895069 327.933838,38.347828 328.992645,44.032463 
	C328.981323,60.724522 328.973236,76.578537 329.046600,92.432175 
	C329.053741,93.973999 329.563965,95.513489 329.840637,97.054062 
M287.035339,79.538551 
	C290.996674,83.005692 295.522491,82.855171 299.910370,80.944283 
	C304.079163,79.128838 306.136383,74.861748 305.650299,70.943581 
	C305.121094,66.677879 303.395599,62.092258 298.098846,60.512341 
	C294.528778,59.447453 288.684479,60.756088 286.607391,64.014755 
	C284.011505,68.087395 282.107880,75.099342 287.035339,79.538551 
z"/>
<path fill="#3613F0" opacity="1.000000" stroke="none" 
	d="
M128.991821,105.076859 
	C113.883713,102.229996 103.123802,87.398521 102.788315,72.766006 
	C102.548401,62.301910 106.026688,53.551384 112.543121,46.302635 
	C118.422371,39.762676 126.665169,36.269993 135.679794,36.039890 
	C150.091797,35.672016 161.937180,41.429535 169.110733,53.873722 
	C178.956726,70.953857 173.812103,96.015594 152.273178,104.071419 
	C144.686432,106.908958 137.147339,107.327591 128.991821,105.076859 
M133.096039,82.557938 
	C137.840332,84.655785 144.582306,83.035118 147.983246,78.979294 
	C151.715439,74.528427 151.988144,69.646530 148.789795,64.540215 
	C145.909882,59.942287 140.443680,57.775543 135.004669,59.075916 
	C131.602631,59.889282 126.263367,65.451180 126.006897,68.448891 
	C125.267380,77.092506 126.262413,79.184715 133.096039,82.557938 
z"/>
<path fill="#28C2AB" opacity="1.000000" stroke="none" 
	d="
M509.153381,42.966244 
	C510.426910,38.737640 513.076416,37.024220 517.561584,37.908741 
	C519.267273,38.245129 521.139954,37.707989 522.938599,37.604904 
	C527.979736,37.315971 531.990356,41.039242 532.010986,46.093052 
	C532.041443,53.560909 532.014771,61.028996 532.011292,68.496986 
	C532.007019,77.597702 534.132507,80.814301 541.409241,82.715309 
	C545.346497,83.743896 550.598877,80.297455 554.242065,73.830856 
	C554.719238,67.084702 554.992310,61.024124 554.947266,54.965916 
	C554.917358,50.944229 554.432495,46.925922 554.151306,42.906101 
	C555.329224,38.487839 558.380615,37.219467 562.597168,37.834282 
	C563.576477,37.977070 564.580627,37.996181 565.573181,37.994026 
	C576.118286,37.971111 577.006226,38.843346 577.000854,49.176399 
	C576.993103,64.138481 576.992126,79.100571 577.001160,94.062645 
	C577.007019,103.753944 570.771362,108.443459 561.284424,105.704414 
	C557.278809,104.547935 554.142090,102.424973 554.669128,97.051605 
	C549.317993,106.927017 540.136597,105.756920 531.861572,104.761086 
	C523.729187,103.782402 517.655640,98.185829 514.086853,90.935158 
	C511.634125,85.951904 510.661438,80.240219 509.328705,74.091827 
	C509.748566,68.242790 510.020844,63.153648 509.941681,58.069981 
	C509.863281,53.032532 509.430664,48.000595 509.153381,42.966244 
z"/>
<path fill="#3511F0" opacity="1.000000" stroke="none" 
	d="
M66.039871,99.127159 
	C65.489243,100.713097 65.405952,102.865318 64.299835,103.778198 
	C61.055134,106.456047 48.345303,105.160561 45.096821,101.325729 
	C45.108749,78.621353 45.068321,56.775021 44.939903,34.929211 
	C44.930416,33.315651 44.287388,31.705816 43.938892,30.094250 
	C35.907948,30.062721 27.867466,30.244785 19.851107,29.886744 
	C16.945984,29.756989 12.433130,29.147507 11.553478,27.343243 
	C9.372891,22.870615 8.442872,17.173429 11.972490,12.953459 
	C13.561756,11.053352 17.560984,10.476594 20.465925,10.478590 
	C44.172493,10.494877 67.878685,10.821991 91.585533,10.963983 
	C94.940727,10.984077 98.999718,10.840300 99.752754,14.446294 
	C100.642708,18.707890 100.105286,23.397301 99.382339,27.768221 
	C99.216454,28.771141 95.767525,29.231045 93.147224,29.581430 
	C86.653992,29.150509 80.841003,28.960346 75.033005,29.060175 
	C72.338745,29.106485 69.654190,29.717072 66.965233,30.071850 
	C66.965233,30.071850 66.974892,29.973026 66.807373,30.107416 
	C66.731438,30.667847 66.823013,31.093889 66.914589,31.519930 
	C66.914589,31.519930 67.073990,31.634209 66.919174,32.190018 
	C66.834328,51.562866 66.904289,70.379913 66.974258,89.196953 
	C66.974258,89.196953 67.067184,89.378174 66.731644,89.809479 
	C66.277359,93.202911 66.158615,96.165031 66.039871,99.127159 
z"/>
<path fill="#3713F0" opacity="1.000000" stroke="none" 
	d="
M235.400909,84.770645 
	C240.631424,87.496284 241.257202,92.325974 240.539780,96.692703 
	C239.418579,103.517120 236.701294,105.837143 230.177216,105.837082 
	C225.232758,105.837036 220.111420,105.056625 215.379990,103.607430 
	C204.925995,100.405472 201.535706,91.950531 201.052750,81.981438 
	C200.771225,76.170464 200.896118,70.332085 201.043106,64.511208 
	C201.120270,61.455147 200.319763,59.765232 196.877792,59.968079 
	C191.618179,60.278046 189.522064,58.606773 189.004074,51.843990 
	C188.991379,51.678524 189.004669,51.511219 189.001282,51.344864 
	C188.761017,39.535168 189.290237,38.901356 199.271713,37.751457 
	C200.196701,30.865900 201.037445,24.266487 202.030533,17.690083 
	C202.141998,16.951904 203.028595,15.875692 203.703766,15.749729 
	C209.098480,14.743275 214.559631,13.490489 219.886292,15.988616 
	C222.820511,17.364729 224.276810,19.559938 224.069122,23.064751 
	C223.786224,27.838511 223.998581,32.641613 223.998581,38.001526 
	C227.680145,38.001526 230.957794,37.970882 234.234665,38.008205 
	C240.190903,38.076050 242.940887,40.859863 243.009827,46.644947 
	C243.180267,60.950638 243.404922,60.166862 229.461777,60.001434 
	C227.833130,59.982109 226.204041,59.998810 224.023376,59.998810 
	C224.023376,66.676903 223.790817,72.954124 224.102982,79.204155 
	C224.320633,83.562126 227.385178,84.881401 235.400909,84.770645 
z"/>
<path fill="#3612F0" opacity="1.000000" stroke="none" 
	d="
M374.841980,79.037941 
	C374.631683,82.572342 376.388550,83.928886 379.824982,84.045731 
	C385.519928,84.239403 386.994415,85.917290 387.000793,91.532532 
	C387.003052,93.530235 387.001862,95.527931 387.001770,97.525635 
	C387.001434,104.257637 385.005005,106.292870 378.080444,105.939598 
	C373.467194,105.704247 368.863403,105.083176 364.284393,104.430992 
	C359.051849,103.685707 354.985779,99.913223 353.993744,94.906403 
	C353.205078,90.925873 352.674469,86.894211 352.320831,82.106155 
	C352.740814,80.349899 352.980896,79.372803 352.981384,78.395592 
	C352.992859,55.886959 352.978210,33.378311 352.968445,10.869667 
	C353.768402,6.892950 356.092133,5.301916 360.165039,5.930512 
	C363.260925,6.408322 366.417206,6.481016 369.537903,6.815351 
	C373.348877,7.223640 374.531860,9.928728 374.657104,13.944962 
	C374.253662,35.340954 374.152008,56.023510 374.100555,76.706192 
	C374.098602,77.482826 374.583801,78.260666 374.841980,79.037941 
z"/>
<path fill="#CDEFEA" opacity="1.000000" stroke="none" 
	d="
M599.079590,12.341107 
	C599.437439,13.593059 599.957214,15.320341 599.960938,17.048738 
	C600.019287,44.082352 600.011047,71.116112 599.980835,98.622742 
	C599.628784,97.591995 599.042603,96.088890 599.039551,94.584618 
	C598.984985,67.328812 599.000732,40.072868 599.079590,12.341107 
z"/>
<path fill="#BEEBE4" opacity="1.000000" stroke="none" 
	d="
M406.074585,17.278566 
	C406.429688,17.369905 406.949127,17.943594 406.948364,18.516579 
	C406.912415,45.162037 406.831207,71.807434 406.457764,98.758759 
	C406.105652,71.963310 406.050964,44.861950 406.074585,17.278566 
z"/>
<path fill="#A3E3DA" opacity="1.000000" stroke="none" 
	d="
M486.481689,96.831284 
	C486.060791,70.988899 486.018768,44.931694 486.029663,18.404839 
	C486.391479,18.607428 486.970398,19.279711 486.970306,19.951916 
	C486.966797,45.506767 486.910126,71.061615 486.481689,96.831284 
z"/>
<path fill="#593BF2" opacity="1.000000" stroke="none" 
	d="
M352.626160,11.053470 
	C352.978210,33.378311 352.992859,55.886959 352.981384,78.395592 
	C352.980896,79.372803 352.740814,80.349899 352.386139,81.677551 
	C352.107330,61.902367 352.040253,41.776688 352.016052,21.650955 
	C352.011902,18.179840 352.189972,14.708506 352.626160,11.053470 
z"/>
<path fill="#7D66F4" opacity="1.000000" stroke="none" 
	d="
M43.967087,30.556303 
	C44.287388,31.705816 44.930416,33.315651 44.939903,34.929211 
	C45.068321,56.775021 45.108749,78.621353 45.118229,100.966507 
	C44.707066,99.946999 44.040958,98.429459 44.036407,96.909943 
	C43.970573,74.946236 43.993572,52.982265 43.967087,30.556303 
z"/>
<path fill="#6E54F3" opacity="1.000000" stroke="none" 
	d="
M374.900482,78.567017 
	C374.583801,78.260666 374.098602,77.482826 374.100555,76.706192 
	C374.152008,56.023510 374.253662,35.340954 374.592194,14.320742 
	C374.878082,35.354095 374.918549,56.725090 374.900482,78.567017 
z"/>
<path fill="#FFFFFF" opacity="1.000000" stroke="none" 
	d="
M67.364746,88.973633 
	C66.904289,70.379913 66.834328,51.562866 66.869308,32.274456 
	C67.314522,32.475052 67.952591,33.147427 67.951653,33.818909 
	C67.926041,52.129429 67.835175,70.439857 67.364746,88.973633 
z"/>
<path fill="#B2A4F8" opacity="1.000000" stroke="none" 
	d="
M329.923187,96.587067 
	C329.563965,95.513489 329.053741,93.973999 329.046600,92.432175 
	C328.973236,76.578537 328.981323,60.724522 329.033936,44.402004 
	C329.401703,45.435837 329.957520,46.937244 329.963593,48.440876 
	C330.027954,64.333733 330.004761,80.226952 329.923187,96.587067 
z"/>
<path fill="#8FDCD0" opacity="1.000000" stroke="none" 
	d="
M429.353485,68.013626 
	C430.918488,67.670921 432.485779,67.023643 434.048126,67.035416 
	C443.507416,67.106667 452.965576,67.328430 462.732727,67.789825 
	C452.363281,68.055717 441.685242,68.031677 430.362030,68.020523 
	C429.716827,68.033401 429.353485,68.013634 429.353485,68.013626 
z"/>
<path fill="#ACE6DD" opacity="1.000000" stroke="none" 
	d="
M463.552826,17.125065 
	C463.830933,27.341501 463.723999,37.771667 463.342316,48.488861 
	C463.100952,38.296856 463.134369,27.817823 463.552826,17.125065 
z"/>
<path fill="#64D3C1" opacity="1.000000" stroke="none" 
	d="
M509.075317,43.433731 
	C509.430664,48.000595 509.863281,53.032532 509.941681,58.069981 
	C510.020844,63.153648 509.748566,68.242790 509.392700,73.671661 
	C509.102539,63.976273 509.049896,53.938744 509.075317,43.433731 
z"/>
<path fill="#8DDED1" opacity="1.000000" stroke="none" 
	d="
M554.070068,43.378551 
	C554.432495,46.925922 554.917358,50.944229 554.947266,54.965916 
	C554.992310,61.024124 554.719238,67.084702 554.378662,73.486488 
	C554.113647,63.836136 554.051208,53.843571 554.070068,43.378551 
z"/>
<path fill="#ACE7DD" opacity="1.000000" stroke="none" 
	d="
M462.954651,68.435783 
	C463.281311,69.319756 463.946442,70.674286 463.947601,72.029404 
	C463.955200,80.810768 463.818146,89.592255 463.445587,98.682693 
	C463.103821,88.963326 463.044922,78.934967 462.954651,68.435783 
z"/>
<path fill="#92DFD4" opacity="1.000000" stroke="none" 
	d="
M429.971161,48.368958 
	C429.641418,45.791759 429.080872,42.764397 429.053833,39.732277 
	C428.991028,32.687199 429.185577,25.639828 429.558960,18.279606 
	C429.888977,27.949429 429.935852,37.933029 429.971161,48.368958 
z"/>
<path fill="#92DFD4" opacity="1.000000" stroke="none" 
	d="
M429.241150,68.470200 
	C429.353485,68.013634 429.716827,68.033401 429.898621,68.036133 
	C430.049957,77.049362 430.019501,86.059845 429.914124,95.535957 
	C429.602417,86.976646 429.365631,77.951706 429.241150,68.470200 
z"/>
<path fill="#BCECE4" opacity="1.000000" stroke="none" 
	d="
M622.548950,39.803257 
	C622.124390,31.324257 622.064575,22.616510 622.062378,13.442079 
	C622.411743,16.433245 622.876160,19.887154 622.955261,23.349857 
	C623.078674,28.754944 622.940796,34.165993 622.548950,39.803257 
z"/>
<path fill="#9987F6" opacity="1.000000" stroke="none" 
	d="
M67.435791,30.038982 
	C69.654190,29.717072 72.338745,29.106485 75.033005,29.060175 
	C80.841003,28.960346 86.653992,29.150509 92.760513,29.528872 
	C84.672844,29.892529 76.289597,29.949324 67.435791,30.038982 
z"/>
<path fill="#7F69F4" opacity="1.000000" stroke="none" 
	d="
M66.425797,98.920715 
	C66.158615,96.165031 66.277359,93.202911 66.653488,89.874756 
	C66.877831,92.577248 66.844780,95.645760 66.425797,98.920715 
z"/>
<path fill="#7F69F4" opacity="1.000000" stroke="none" 
	d="
M66.955231,31.135296 
	C66.823013,31.093889 66.731438,30.667847 66.856857,30.111431 
	C67.047867,30.237589 67.021866,30.494125 66.955231,31.135296 
z"/>
<path fill="transparent" opacity="1.000000" stroke="none" 
	d="
M633.974365,60.000778 
	C640.826294,61.361313 643.713745,65.210999 644.087769,71.551247 
	C644.439392,77.510796 640.745361,81.096909 634.482849,82.581772 
	C630.681396,83.483109 626.881958,81.436310 624.538513,77.953041 
	C621.865112,73.979431 622.690796,69.826408 624.690918,65.911270 
	C626.497253,62.375416 629.581543,60.426418 633.974365,60.000778 
z"/>
<path fill="transparent" opacity="1.000000" stroke="none" 
	d="
M286.753601,79.255905 
	C282.107880,75.099342 284.011505,68.087395 286.607391,64.014755 
	C288.684479,60.756088 294.528778,59.447453 298.098846,60.512341 
	C303.395599,62.092258 305.121094,66.677879 305.650299,70.943581 
	C306.136383,74.861748 304.079163,79.128838 299.910370,80.944283 
	C295.522491,82.855171 290.996674,83.005692 286.753601,79.255905 
z"/>
<path fill="transparent" opacity="1.000000" stroke="none" 
	d="
M132.790131,82.313301 
	C126.262413,79.184715 125.267380,77.092506 126.006897,68.448891 
	C126.263367,65.451180 131.602631,59.889282 135.004669,59.075916 
	C140.443680,57.775543 145.909882,59.942287 148.789795,64.540215 
	C151.988144,69.646530 151.715439,74.528427 147.983246,78.979294 
	C144.582306,83.035118 137.840332,84.655785 132.790131,82.313301 
z"/>
</svg>